<?xml version="1.0" encoding="utf-8"?>
<!-- Generator: Adobe Illustrator 18.1.1, SVG Export Plug-In . SVG Version: 6.00 Build 0)  -->
<!DOCTYPE svg PUBLIC "-//W3C//DTD SVG 1.1//EN" "http://www.w3.org/Graphics/SVG/1.1/DTD/svg11.dtd">
<svg version="1.1" id="Layer_1" xmlns="http://www.w3.org/2000/svg" xmlns:xlink="http://www.w3.org/1999/xlink" x="0px" y="0px"
	 viewBox="0 0 137.6 110.4" style="enable-background:new 0 0 137.6 110.4;" xml:space="preserve">
<style type="text/css">
	.Drop_x0020_Shadow{fill:none;}
	.Round_x0020_Corners_x0020_2_x0020_pt{fill:#FFFFFF;stroke:#000000;stroke-miterlimit:10;}
	.Live_x0020_Reflect_x0020_X{fill:none;}
	.Bevel_x0020_Soft{fill:url(#SVGID_1_);}
	.Dusk{fill:#FFFFFF;}
	.Foliage_GS{fill:#FFDD00;}
	.Pompadour_GS{fill-rule:evenodd;clip-rule:evenodd;fill:#44ADE2;}
	.st0{fill-rule:evenodd;clip-rule:evenodd;fill:#238C9C;}
	.st1{fill-rule:evenodd;clip-rule:evenodd;fill:#3FAFBD;}
	.st2{fill-rule:evenodd;clip-rule:evenodd;fill:#FFFFFF;}
	.st3{fill:#238C9C;}
</style>
<linearGradient id="SVGID_1_" gradientUnits="userSpaceOnUse" x1="-238.1795" y1="-340.9354" x2="-237.4724" y2="-340.2283">
	<stop  offset="0" style="stop-color:#DEDFE3"/>
	<stop  offset="0.1738" style="stop-color:#D8D9DD"/>
	<stop  offset="0.352" style="stop-color:#C9CACD"/>
	<stop  offset="0.5323" style="stop-color:#B4B5B8"/>
	<stop  offset="0.7139" style="stop-color:#989A9C"/>
	<stop  offset="0.8949" style="stop-color:#797C7E"/>
	<stop  offset="1" style="stop-color:#656B6C"/>
</linearGradient>
<polygon class="st0" points="136.7,63.2 136.2,63.8 118.9,77.9 118.1,64.9 "/>
<polygon class="st0" points="2.4,46 19.1,38.1 19.6,45.3 1.1,47 "/>
<path class="st0" d="M68.8,0C99.3,0,124,24.7,124,55.2c0,30.5-24.7,55.2-55.2,55.2S13.6,85.7,13.6,55.2C13.6,24.7,38.3,0,68.8,0
	L68.8,0z M68.8,2.7c-29,0-52.6,23.5-52.6,52.6c0,29,23.5,52.6,52.6,52.6s52.6-23.5,52.6-52.6C121.4,26.2,97.8,2.7,68.8,2.7z"/>
<circle class="st1" cx="68.8" cy="55.2" r="52.7"/>
<circle class="st0" cx="68.8" cy="55.2" r="39.7"/>
<path class="st0" d="M3.7,45.6L132.9,28c0.1,0,0.1,0,0.2,0c0.1,0,0.1,0,0.2,0c0,0,0.1,0,0.1,0c0,0,0.1,0,0.1,0
	c2.3,0,4.1,1.8,4.1,4.1c0,0,0,0,0,0c0,0,0,0,0,0v28.5c0,0,0,0,0,0.1c0,0,0,0,0,0.1c0,2-1.5,3.6-3.4,4c0,0-0.1,0-0.1,0
	c-0.1,0-0.2,0-0.2,0L4.7,82.5c-0.6,0.1-0.4,0-0.8,0c-2.2-0.1-3.9-1.9-3.9-4l0-28.7c0-2,1.5-3.7,3.4-4c0,0,0.1,0,0.1,0
	C3.6,45.6,3.7,45.6,3.7,45.6z"/>
<path class="st2" d="M4,48l129.1-17.7c0,0,0.1,0,0.1,0c0,0,0.1,0,0.1,0c0,0,0,0,0,0c0,0,0.1,0,0.1,0c0.9,0,1.7,0.8,1.7,1.7
	c0,0,0,0,0,0c0,0,0,0,0,0.1v28.5c0,0,0,0,0,0.1c0,0,0,0,0,0c0,0.8-0.6,1.5-1.4,1.6c0,0,0,0,0,0c-0.1,0-0.1,0-0.2,0L4.4,80.1l0,0
	c-0.1,0-0.2,0-0.3,0c-0.9,0-1.6-0.8-1.6-1.6l0,0V49.8l0-0.1c0,0,0,0,0,0c0,0,0,0,0,0c0-0.8,0.6-1.5,1.4-1.7c0,0,0,0,0,0
	C3.9,48,4,48,4,48z"/>
<path class="st3" d="M23.8,59.7c0.3,0,0.7-0.1,1.1-0.1c1-0.1,1.5-1.2,1.5-3.3c0-2.1-0.6-3-1.8-2.8c-0.3,0-0.6,0.1-0.9,0.1
	C23.7,55.6,23.7,57.6,23.8,59.7L23.8,59.7z M23.9,69.7c0.4,0,0.7-0.1,1.1-0.1c1.1-0.1,1.6-1.3,1.6-3.5c0-1.1-0.1-1.9-0.4-2.4
	c-0.3-0.6-0.8-0.9-1.6-0.8c-0.3,0-0.6,0.1-0.8,0.1C23.8,65.3,23.9,67.5,23.9,69.7L23.9,69.7z M21.4,73.4c0-3.8-0.1-7.6-0.1-11.4
	c-0.1-3.8-0.1-7.6-0.1-11.4c1.1-0.2,2.3-0.3,3.4-0.5c1.4-0.2,2.5,0.2,3.2,1.1c0.8,0.9,1.2,2.4,1.2,4.3c0,2.3-0.5,4.1-1.7,5.5
	c1.4,0.9,2.1,2.6,2.1,5.3c0.1,4.1-1.3,6.3-4.1,6.7C23.9,73,22.7,73.2,21.4,73.4L21.4,73.4z M31.5,72c0-3.8-0.1-7.6-0.1-11.4
	c-0.1-3.8-0.1-7.6-0.1-11.5c2.3-0.3,4.6-0.6,6.8-0.9c0,1.1,0,2.2,0,3.3c-1.4,0.2-2.8,0.4-4.2,0.6c0,2,0,4,0.1,6c1-0.1,2-0.3,3-0.4
	c0,1.1,0,2.2,0.1,3.3c-1,0.1-2,0.3-3,0.4c0,2.3,0.1,4.6,0.1,6.8c1.4-0.2,2.8-0.4,4.2-0.6c0,1.2,0,2.3,0,3.4
	C36.1,71.5,33.8,71.8,31.5,72L31.5,72z M39.5,65.2c0.8-0.3,1.7-0.6,2.5-0.8c0.1,2.3,0.7,3.3,1.8,3.2c0.5-0.1,0.9-0.3,1.2-0.8
	c0.3-0.5,0.4-1,0.4-1.7c0-1.2-0.7-2.7-2.2-4.4c-0.1-0.1-0.2-0.2-0.2-0.3c-1.1-1.3-1.9-2.3-2.3-3c-0.7-1.3-1.1-2.6-1.1-4
	c0-1.6,0.4-3,1.1-4.2c0.8-1.2,1.7-1.9,2.9-2.1c1.2-0.2,2.1,0.3,2.9,1.3c0.7,0.9,1,2.2,1.2,3.9c-0.9,0.3-1.7,0.6-2.6,0.9
	c-0.1-1.9-0.6-2.8-1.5-2.7c-0.9,0.1-1.4,0.9-1.4,2.3c0,1.3,0.9,3,2.5,4.9c0,0.1,0.1,0.1,0.2,0.2c1,1.2,1.7,2.2,2.1,3
	c0.6,1.2,0.9,2.5,0.9,3.9c0,1.6-0.3,3.1-1.1,4.3c-0.7,1.2-1.7,1.9-2.9,2c-1.4,0.2-2.4-0.3-3.2-1.4C40,68.5,39.6,67.1,39.5,65.2
	L39.5,65.2z M48.2,50.1c0-1.1,0-2.2,0-3.3c2.7-0.4,5.4-0.8,8.2-1.1c0,1.1,0,2.2,0,3.3c-0.9,0.1-1.9,0.3-2.8,0.4
	c0,3.3,0.1,6.6,0.1,9.9c0,3.3,0.1,6.6,0.1,9.9c-0.9,0.1-1.8,0.2-2.7,0.3c0-3.3-0.1-6.6-0.1-9.9c0-3.3-0.1-6.6-0.1-9.9
	C50,49.9,49.1,50,48.2,50.1L48.2,50.1z M62.3,62.1c0-2,0-4-0.1-5.9c0-2,0-4-0.1-5.9c0-1.8,0.3-3.3,1-4.4c0.7-1.2,1.8-1.9,3.1-2
	c1.3-0.2,2.3,0.2,3.1,1.3c0.7,1,1,2.4,1,4.1c0,0.7,0,1.5,0,2.2c-0.9,0.1-1.8,0.3-2.8,0.4c0-0.9,0-1.7,0-2.6c0-1.6-0.5-2.3-1.4-2.2
	c-0.9,0.1-1.4,1-1.4,2.6c0,2.2,0,4.3,0,6.5c0,2.2,0.1,4.3,0.1,6.5c0,1.6,0.5,2.3,1.4,2.2c0.9-0.1,1.4-1,1.4-2.6c0-1.1,0-2.1,0-3.2
	c0.9-0.1,1.8-0.2,2.8-0.4c0,0.8,0,1.6,0,2.4c0,1.9-0.3,3.5-0.9,4.7c-0.7,1.3-1.7,2-3.1,2.2C63.8,68.3,62.4,66.4,62.3,62.1L62.3,62.1
	z M72.8,43.4c0.9-0.1,1.8-0.2,2.7-0.4c0,3.2,0.1,6.3,0.1,9.5c0.9-0.1,1.8-0.2,2.7-0.4c0-3.2,0-6.3-0.1-9.5c0.9-0.1,1.8-0.2,2.7-0.4
	c0,3.9,0,7.8,0.1,11.7c0,3.9,0,7.8,0.1,11.6c-0.9,0.1-1.8,0.2-2.7,0.4c0-1.7,0-3.5,0-5.2c0-1.7,0-3.5,0-5.2
	c-0.9,0.1-1.8,0.2-2.7,0.4c0,1.7,0,3.5,0,5.2c0,1.7,0,3.5,0,5.2c-0.9,0.1-1.8,0.2-2.7,0.3c0-3.9-0.1-7.7-0.1-11.6
	C72.8,51.2,72.8,47.3,72.8,43.4L72.8,43.4z M89,59.4c0-2.2,0-4.3-0.1-6.5c0-2.2,0-4.4,0-6.5c0-1.6-0.5-2.4-1.4-2.2
	c-0.9,0.1-1.4,1-1.4,2.6c0,2.2,0,4.4,0,6.5c0,2.2,0,4.4,0.1,6.5c0,1.6,0.5,2.4,1.4,2.2C88.6,61.9,89,61,89,59.4L89,59.4z M83.4,47.3
	c0-1.8,0.3-3.3,1.1-4.4c0.7-1.2,1.8-1.9,3.2-2.1c1.3-0.2,2.4,0.2,3.1,1.3c0.7,1,1,2.4,1.1,4.2c0,2,0,4,0,6c0,2,0,4,0,6
	c0,1.9-0.3,3.5-1,4.7c-0.7,1.3-1.8,2.1-3.2,2.2c-2.8,0.4-4.2-1.6-4.2-5.9c0-2,0-4,0-6C83.4,51.3,83.4,49.3,83.4,47.3L83.4,47.3z
	 M94.3,63.9c0-3.9,0-7.8-0.1-11.7c0-3.9,0-7.8-0.1-11.7c0.9-0.1,1.9-0.3,2.8-0.4c0,3.9,0,7.8,0.1,11.8c0,3.9,0,7.8,0.1,11.7
	C96.2,63.6,95.2,63.7,94.3,63.9L94.3,63.9z M99.5,57.2c0-2,0-4,0-6c0-2,0-4,0-6c0-1.8,0.4-3.3,1.1-4.5c0.8-1.2,1.8-1.9,3.2-2.1
	c1.3-0.2,2.4,0.2,3.1,1.3c0.7,1,1,2.4,1,4.2c0,0.8,0,1.5,0,2.3c-1,0.1-1.9,0.3-2.8,0.4c0-0.9,0-1.7,0-2.6c0-1.6-0.5-2.4-1.4-2.2
	c-0.9,0.1-1.4,1-1.4,2.6c0,2.2,0,4.4,0,6.6c0,2.2,0,4.4,0,6.6c0,1.6,0.5,2.4,1.4,2.3c0.9-0.1,1.4-1,1.4-2.6c0-1.1,0-2.1,0-3.2
	c0.9-0.1,1.9-0.3,2.8-0.4c0,0.8,0,1.6,0,2.5c0,1.9-0.3,3.5-1,4.7c-0.7,1.3-1.8,2.1-3.2,2.3C100.9,63.5,99.5,61.5,99.5,57.2
	L99.5,57.2z M110.3,61.8c0-3.9,0-7.8,0-11.8c0-3.9,0-7.9,0-11.8c2.4-0.3,4.8-0.7,7.2-1c0,1.1,0,2.3,0,3.4c-1.5,0.2-3,0.4-4.5,0.6
	c0,2.1,0,4.1,0,6.2c1.1-0.1,2.1-0.3,3.2-0.4c0,1.1,0,2.3,0,3.4c-1.1,0.1-2.1,0.3-3.2,0.4c0,2.4,0,4.7,0,7c1.5-0.2,3-0.4,4.5-0.6
	c0,1.2,0,2.4,0,3.5C115.1,61.2,112.7,61.5,110.3,61.8z"/>
<path class="st0" d="M11.3,57c0.2,0.6,0.4,1.3,0.6,1.9c0.2,0.6,0.4,1.3,0.6,1.9c0.7-0.1,1.3-0.2,2-0.3c0.7-0.1,1.3-0.2,2-0.3
	c-0.5,0.5-1.1,1-1.6,1.5c-0.5,0.5-1.1,1-1.6,1.5c0.2,0.6,0.4,1.3,0.6,1.9c0.2,0.6,0.4,1.3,0.6,1.9c-0.5-0.3-1.1-0.7-1.6-1
	c-0.5-0.3-1.1-0.7-1.6-1c-0.5,0.5-1.1,1-1.6,1.5c-0.5,0.5-1.1,1-1.6,1.5c0.2-0.7,0.4-1.4,0.6-2.1c0.2-0.7,0.4-1.4,0.6-2.1
	c-0.5-0.3-1.1-0.7-1.6-1c-0.5-0.3-1.1-0.7-1.6-1c0.7-0.1,1.3-0.2,2-0.3c0.7-0.1,1.3-0.2,2-0.3c0.2-0.7,0.4-1.4,0.6-2.1
	C10.9,58.4,11.1,57.7,11.3,57z"/>
<path class="st0" d="M125.4,42.2c0.2,0.6,0.4,1.3,0.6,1.9c0.2,0.6,0.4,1.3,0.6,1.9c0.7-0.1,1.3-0.2,2-0.3c0.7-0.1,1.3-0.2,2-0.3
	c-0.5,0.5-1.1,1-1.6,1.5c-0.5,0.5-1.1,1-1.6,1.5c0.2,0.6,0.4,1.3,0.6,1.9c0.2,0.6,0.4,1.3,0.6,1.9c-0.5-0.3-1.1-0.7-1.6-1
	c-0.5-0.3-1.1-0.7-1.6-1c-0.5,0.5-1.1,1-1.6,1.5c-0.5,0.5-1.1,1-1.6,1.5c0.2-0.7,0.4-1.4,0.6-2.1c0.2-0.7,0.4-1.4,0.6-2.1
	c-0.5-0.3-1.1-0.7-1.6-1c-0.5-0.3-1.1-0.7-1.6-1c0.7-0.1,1.3-0.2,2-0.3c0.7-0.1,1.3-0.2,2-0.3c0.2-0.7,0.4-1.4,0.6-2.1
	C125,43.6,125.2,42.9,125.4,42.2z"/>
</svg>
